<svg width="636" height="586" viewBox="0 0 636 586" fill="none" xmlns="http://www.w3.org/2000/svg">
<circle cx="293" cy="293" r="292.5" stroke="#03BAFE" stroke-opacity="0.15"/>
<circle cx="292.973" cy="292.973" r="246.973" fill="#5ED3FF" fill-opacity="0.4"/>
<circle cx="293.369" cy="293.369" r="191.369" fill="#5ED3FF" fill-opacity="0.4"/>
<circle cx="293.046" cy="293.046" r="138.046" fill="#03BAFE" fill-opacity="0.2"/>
<circle cx="292.671" cy="293.671" r="91.1712" fill="#FFA200" stroke="#C4C4C4"/>
<circle cx="295.5" cy="223.5" r="14" fill="white" fill-opacity="0.5" stroke="white"/>
<g filter="url(#filter0_d_134_392)">
<path d="M296 172C296 160.954 304.954 152 316 152H494C505.046 152 514 160.954 514 172V204C514 215.046 505.046 224 494 224H296V172Z" fill="#F9F9F9"/>
</g>
<circle cx="293" cy="293" r="51" fill="white"/>
<circle cx="225.5" cy="85.5" r="14" fill="#6BCBEF" fill-opacity="0.5" stroke="white"/>
<circle cx="272.5" cy="179.5" r="14" fill="#6BCBEF" fill-opacity="0.5" stroke="white"/>
<circle cx="406.5" cy="315.5" r="14" fill="#6BCBEF" fill-opacity="0.5" stroke="white"/>
<circle cx="232.5" cy="443.5" r="14" fill="#6BCBEF" fill-opacity="0.5" stroke="white"/>
<g clip-path="url(#clip0_134_392)">
<path d="M307.912 274.288C307.922 275.396 307.776 276.484 307.514 277.551C307.389 278.032 307.514 278.063 307.954 277.969C310.035 277.498 312.117 277.394 314.199 277.98C317.316 278.858 319.178 281.013 320.318 283.92C320.851 285.29 321.207 286.702 321.416 288.156C321.636 289.725 320.59 291.189 319.042 291.419C317.41 291.659 315.966 290.603 315.726 288.982C315.579 288.02 315.349 287.079 315.004 286.158C314.146 283.889 313.048 283.062 310.192 283.408C307.514 283.732 305.182 284.914 303.079 286.556C302.535 286.984 302.117 287.539 301.52 287.926C300.234 288.741 298.612 288.553 297.65 287.403C296.688 286.263 296.761 284.589 297.838 283.512C300.202 281.159 301.625 278.346 302.085 275.041C302.179 274.371 302.138 273.723 302.002 273.064C301.792 272.081 301.217 271.38 300.328 270.92C299.156 270.313 297.911 269.947 296.614 269.759C294.993 269.529 293.884 268.222 294.01 266.653C294.135 265.063 295.485 263.839 297.116 264.017C299.868 264.32 302.472 265.136 304.669 266.904C307.023 268.797 307.87 271.38 307.912 274.288Z" fill="#04BAFD"/>
<path d="M277.525 311.336C277.556 310.05 277.672 308.92 277.964 307.822C278.069 307.404 277.964 307.393 277.609 307.477C275.642 307.948 273.655 308.084 271.667 307.602C268.602 306.87 266.583 304.936 265.349 302.091C264.711 300.616 264.282 299.079 264.041 297.489C263.79 295.816 264.7 294.414 266.228 294.069C267.682 293.745 269.178 294.592 269.606 296.014C269.732 296.433 269.784 296.861 269.857 297.29C270.014 298.148 270.276 298.974 270.621 299.779C271.374 301.505 272.525 302.248 274.397 302.122C277.766 301.892 280.642 300.532 283.059 298.221C283.906 297.405 284.774 296.788 286.009 297.018C287.191 297.238 287.986 297.939 288.331 299.079C288.676 300.24 288.352 301.244 287.484 302.08C285.622 303.858 284.439 306.034 283.728 308.481C283.393 309.621 283.195 310.782 283.352 311.985C283.488 313.051 283.958 313.888 284.921 314.432C286.134 315.122 287.452 315.488 288.822 315.687C290.151 315.886 291.103 316.722 291.375 317.967C291.626 319.107 291.124 320.331 290.14 320.969C289.565 321.345 288.927 321.523 288.247 321.418C285.653 321.042 283.174 320.331 281.04 318.741C278.958 317.193 277.933 315.049 277.619 312.518C277.567 312.079 277.556 311.629 277.525 311.336Z" fill="#04BAFD"/>
<path d="M312.163 308.899C311.044 308.899 309.935 308.752 308.847 308.491C308.481 308.397 308.356 308.418 308.46 308.867C308.931 310.855 309.056 312.852 308.565 314.86C307.853 317.705 306.107 319.671 303.481 320.916C301.797 321.711 300.029 322.202 298.188 322.443C296.682 322.641 295.217 321.512 295.029 320.037C294.809 318.385 295.866 316.952 297.477 316.722C298.554 316.565 299.59 316.304 300.594 315.885C302.519 315.09 303.251 313.929 303.104 311.859C303 310.237 302.56 308.711 301.86 307.257C301.096 305.677 300.165 304.234 298.868 303.021C297.634 301.871 297.634 300.03 298.795 298.869C299.977 297.666 301.786 297.656 302.989 298.89C305.259 301.212 308.01 302.571 311.201 303.073C311.944 303.188 312.697 303.178 313.429 303C314.391 302.78 315.061 302.195 315.511 301.327C316.117 300.155 316.473 298.911 316.661 297.614C316.839 296.38 317.488 295.512 318.691 295.146C319.841 294.79 320.866 295.093 321.682 295.972C322.258 296.589 322.498 297.363 322.383 298.189C322.017 300.846 321.274 303.366 319.611 305.521C317.749 307.957 315.134 308.846 312.163 308.899Z" fill="#FEA201"/>
<path d="M273.732 277.588C275.029 277.515 276.305 277.651 277.56 277.964C278.031 278.08 278.052 277.944 277.958 277.557C277.497 275.653 277.382 273.739 277.811 271.815C278.523 268.614 280.552 266.544 283.512 265.289C284.977 264.672 286.504 264.264 288.073 264.034C289.747 263.793 291.19 264.87 291.41 266.512C291.63 268.102 290.51 269.514 288.858 269.744C287.644 269.911 286.483 270.256 285.364 270.769C283.993 271.396 283.345 272.474 283.314 273.948C283.272 275.925 283.837 277.766 284.705 279.512C285.416 280.935 286.274 282.253 287.456 283.351C288.763 284.553 288.795 286.426 287.592 287.618C286.389 288.821 284.569 288.737 283.314 287.471C280.876 285.024 277.937 283.612 274.485 283.33C272.56 283.173 271.399 283.905 270.614 285.673C270.154 286.718 269.872 287.806 269.704 288.925C269.464 290.599 268.01 291.655 266.315 291.393C264.83 291.163 263.794 289.657 264.035 288.057C264.359 285.924 264.945 283.884 266.043 282.012C267.706 279.178 270.248 277.818 273.47 277.588C273.554 277.578 273.648 277.588 273.732 277.588Z" fill="#FEA201"/>
<path d="M315.278 273.482C312.935 273.492 310.99 271.579 311 269.257C311 266.924 312.883 265.011 315.195 265C317.59 264.99 319.504 266.862 319.515 269.225C319.525 271.558 317.622 273.472 315.278 273.482Z" fill="#04BAFD"/>
<path d="M269.247 311C271.622 311 273.473 312.862 273.473 315.236C273.473 317.589 271.58 319.472 269.216 319.461C266.862 319.461 265 317.579 265 315.204C265 312.83 266.852 310.99 269.247 311Z" fill="#04BAFD"/>
<path d="M273.484 269.257C273.484 271.6 271.559 273.524 269.237 273.514C266.893 273.503 265 271.589 265 269.246C265 266.904 266.925 264.979 269.247 265C271.601 265.011 273.484 266.914 273.484 269.257Z" fill="#FEA201"/>
<path d="M320.494 316.257C320.494 318.61 318.611 320.513 316.258 320.513C313.914 320.513 312.011 318.61 312 316.267C311.99 313.935 313.914 312 316.247 312C318.59 312.01 320.484 313.903 320.494 316.257Z" fill="#FEA201"/>
</g>
<g filter="url(#filter1_d_134_392)">
<path d="M231 392C231 380.954 239.954 372 251 372H433C444.046 372 453 380.954 453 392V424C453 435.046 444.046 444 433 444H231V392Z" fill="#F9F9F9"/>
</g>
<g filter="url(#filter2_d_134_392)">
<path d="M407 264C407 252.954 415.954 244 427 244H602.155C613.201 244 622.155 252.954 622.155 264V296.439C622.155 307.485 613.201 316.439 602.155 316.439H407V264Z" fill="#F9F9F9"/>
</g>
<g filter="url(#filter3_d_134_392)">
<path d="M225 33C225 21.9543 233.954 13 245 13H452C463.046 13 472 21.9543 472 33V65C472 76.0457 463.046 85 452 85H225V33Z" fill="#F9F9F9"/>
</g>
<defs>
<filter id="filter0_d_134_392" x="283" y="152" width="244" height="104" filterUnits="userSpaceOnUse" color-interpolation-filters="sRGB">
<feFlood flood-opacity="0" result="BackgroundImageFix"/>
<feColorMatrix in="SourceAlpha" type="matrix" values="0 0 0 0 0 0 0 0 0 0 0 0 0 0 0 0 0 0 127 0" result="hardAlpha"/>
<feOffset dy="19"/>
<feGaussianBlur stdDeviation="6.5"/>
<feColorMatrix type="matrix" values="0 0 0 0 0 0 0 0 0 0 0 0 0 0 0 0 0 0 0.07 0"/>
<feBlend mode="normal" in2="BackgroundImageFix" result="effect1_dropShadow_134_392"/>
<feBlend mode="normal" in="SourceGraphic" in2="effect1_dropShadow_134_392" result="shape"/>
</filter>
<filter id="filter1_d_134_392" x="218" y="372" width="248" height="104" filterUnits="userSpaceOnUse" color-interpolation-filters="sRGB">
<feFlood flood-opacity="0" result="BackgroundImageFix"/>
<feColorMatrix in="SourceAlpha" type="matrix" values="0 0 0 0 0 0 0 0 0 0 0 0 0 0 0 0 0 0 127 0" result="hardAlpha"/>
<feOffset dy="19"/>
<feGaussianBlur stdDeviation="6.5"/>
<feColorMatrix type="matrix" values="0 0 0 0 0 0 0 0 0 0 0 0 0 0 0 0 0 0 0.07 0"/>
<feBlend mode="normal" in2="BackgroundImageFix" result="effect1_dropShadow_134_392"/>
<feBlend mode="normal" in="SourceGraphic" in2="effect1_dropShadow_134_392" result="shape"/>
</filter>
<filter id="filter2_d_134_392" x="394" y="244" width="241.155" height="104.439" filterUnits="userSpaceOnUse" color-interpolation-filters="sRGB">
<feFlood flood-opacity="0" result="BackgroundImageFix"/>
<feColorMatrix in="SourceAlpha" type="matrix" values="0 0 0 0 0 0 0 0 0 0 0 0 0 0 0 0 0 0 127 0" result="hardAlpha"/>
<feOffset dy="19"/>
<feGaussianBlur stdDeviation="6.5"/>
<feColorMatrix type="matrix" values="0 0 0 0 0 0 0 0 0 0 0 0 0 0 0 0 0 0 0.07 0"/>
<feBlend mode="normal" in2="BackgroundImageFix" result="effect1_dropShadow_134_392"/>
<feBlend mode="normal" in="SourceGraphic" in2="effect1_dropShadow_134_392" result="shape"/>
</filter>
<filter id="filter3_d_134_392" x="212" y="13" width="273" height="104" filterUnits="userSpaceOnUse" color-interpolation-filters="sRGB">
<feFlood flood-opacity="0" result="BackgroundImageFix"/>
<feColorMatrix in="SourceAlpha" type="matrix" values="0 0 0 0 0 0 0 0 0 0 0 0 0 0 0 0 0 0 127 0" result="hardAlpha"/>
<feOffset dy="19"/>
<feGaussianBlur stdDeviation="6.5"/>
<feColorMatrix type="matrix" values="0 0 0 0 0 0 0 0 0 0 0 0 0 0 0 0 0 0 0.07 0"/>
<feBlend mode="normal" in2="BackgroundImageFix" result="effect1_dropShadow_134_392"/>
<feBlend mode="normal" in="SourceGraphic" in2="effect1_dropShadow_134_392" result="shape"/>
</filter>
<clipPath id="clip0_134_392">
<rect width="58.0247" height="58.0247" fill="white" transform="translate(264 264)"/>
</clipPath>
</defs>
</svg>
