<svg width="59" height="59" viewBox="0 0 59 59" fill="none" xmlns="http://www.w3.org/2000/svg">
    <g fill="#04BAFD" class="logo__part1">
        <path
            d="M43.9117 10.2876C43.9222 11.3962 43.7758 12.4839 43.5142 13.5507C43.3887 14.0318 43.5142 14.0632 43.9536 13.9691C46.0352 13.4984 48.1169 13.3938 50.1985 13.9795C53.3158 14.858 55.1778 17.0125 56.318 19.92C56.8514 21.2901 57.2071 22.702 57.4163 24.1558C57.636 25.7246 56.5899 27.1888 55.0418 27.4189C53.4099 27.6594 51.9664 26.6031 51.7258 24.982C51.5793 24.0198 51.3492 23.0786 51.004 22.1582C50.1462 19.8887 49.0479 19.0624 46.1921 19.4076C43.5142 19.7318 41.1815 20.9136 39.079 22.5556C38.535 22.9844 38.1166 23.5387 37.5203 23.9257C36.2337 24.7415 34.6123 24.5532 33.6499 23.4028C32.6876 22.2628 32.7608 20.5894 33.8382 19.5121C36.2023 17.1589 37.625 14.3456 38.0852 11.0406C38.1794 10.3713 38.1375 9.72283 38.0015 9.06394C37.7923 8.08082 37.217 7.38009 36.3278 6.91991C35.1563 6.31331 33.9115 5.94726 32.6143 5.759C30.993 5.52891 29.8841 4.22158 30.0097 2.65278C30.1352 1.06306 31.4846 -0.160606 33.1165 0.0171913C35.8676 0.320493 38.4723 1.13627 40.669 2.90378C43.0226 4.7968 43.8699 7.38009 43.9117 10.2876Z"
        />
        <path
            d="M13.5251 47.3362C13.5565 46.0498 13.6715 44.9203 13.9644 43.8221C14.069 43.4038 13.9644 43.3933 13.6088 43.477C11.6422 43.9476 9.65467 44.0836 7.66717 43.6025C4.60223 42.8704 2.58334 40.9355 1.34899 38.0908C0.710901 36.6161 0.282019 35.0787 0.0414261 33.489C-0.209627 31.8156 0.700441 30.4141 2.22768 30.069C3.6817 29.7448 5.17756 30.5919 5.60644 32.0143C5.73197 32.4326 5.78427 32.8614 5.85749 33.2902C6.0144 34.1479 6.27591 34.9741 6.62111 35.7794C7.37427 37.5051 8.52493 38.2477 10.3974 38.1222C13.7657 37.8921 16.6423 36.5324 19.0587 34.2211C19.906 33.4053 20.7742 32.7882 22.0086 33.0183C23.1906 33.238 23.9856 33.9387 24.3308 35.0787C24.676 36.2396 24.3517 37.2436 23.4835 38.0803C21.6215 39.8583 20.4395 42.0337 19.7282 44.481C19.3934 45.621 19.1947 46.7819 19.3516 47.9847C19.4876 49.0515 19.9583 49.8882 20.9207 50.432C22.1341 51.1223 23.4521 51.4883 24.8225 51.687C26.151 51.8858 27.1029 52.7225 27.3748 53.967C27.6259 55.107 27.1238 56.3307 26.1405 56.9687C25.5652 57.3452 24.9271 57.523 24.2471 57.4184C21.6529 57.0419 19.1738 56.3307 17.0398 54.741C14.9582 53.1931 13.933 51.0491 13.6192 48.5181C13.5669 48.0788 13.5565 47.6291 13.5251 47.3362Z"
        />
        <path
            d="M51.2784 9.48202C48.9352 9.49248 46.9896 7.57854 47 5.25672C47 2.92444 48.8829 1.0105 51.1947 1.00004C53.5902 0.989585 55.5045 2.86169 55.515 5.22534C55.5254 7.55763 53.6216 9.47156 51.2784 9.48202Z"
        />
        <path
            d="M5.24698 47C7.62153 47 9.47305 48.8617 9.47305 51.2358C9.47305 53.589 7.57969 55.4716 5.2156 55.4611C2.86198 55.4611 1 53.5785 1 51.2044C1 48.8303 2.85152 46.9896 5.24698 47Z"
        />
    </g>
    <g fill="#FEA201" class="logo__part2">
        <path
            d="M48.1632 44.8988C47.0439 44.8988 45.9351 44.7523 44.8472 44.4909C44.4811 44.3967 44.3556 44.4177 44.4602 44.8674C44.9309 46.8545 45.0564 48.8521 44.5648 50.8602C43.8535 53.705 42.1065 55.6712 39.481 56.9158C37.7968 57.7106 36.029 58.2022 34.1879 58.4427C32.6816 58.6415 31.2171 57.5119 31.0288 56.0372C30.8092 54.3848 31.8657 52.9519 33.4766 52.7218C34.554 52.565 35.5896 52.3035 36.5938 51.8852C38.5186 51.0903 39.2508 49.9294 39.1044 47.8586C38.9998 46.2375 38.5604 44.7105 37.8596 43.2568C37.0959 41.6775 36.165 40.2342 34.8679 39.021C33.6335 37.8705 33.6335 36.0298 34.7946 34.8689C35.9767 33.6662 37.7863 33.6557 38.9893 34.8898C41.2592 37.2116 44.0104 38.5713 47.2008 39.0733C47.9435 39.1883 48.6967 39.1779 49.4289 39.0001C50.3913 38.7804 51.0608 38.1948 51.5106 37.3267C52.1173 36.1553 52.4729 34.9107 52.6612 33.6139C52.8391 32.3797 53.4876 31.5117 54.6906 31.1456C55.8412 30.79 56.8664 31.0933 57.6823 31.9719C58.2576 32.5889 58.4982 33.3629 58.3832 34.1891C58.017 36.8456 57.2743 39.3661 55.6111 41.5206C53.7491 43.9575 51.134 44.8465 48.1632 44.8988Z"
        />
        <path
            d="M9.73167 13.588C11.0288 13.5147 12.305 13.6507 13.5602 13.9645C14.031 14.0795 14.0519 13.9436 13.9577 13.5566C13.4975 11.6531 13.3824 9.73917 13.8113 7.81478C14.5226 4.61442 16.552 2.54361 19.5123 1.28857C20.9768 0.671507 22.504 0.263619 24.0731 0.0335285C25.7468 -0.207021 27.1903 0.870222 27.41 2.51223C27.6297 4.10195 26.5104 5.51387 24.8576 5.74396C23.6442 5.9113 22.4831 6.25644 21.3638 6.76891C19.9935 7.39643 19.3449 8.47367 19.3135 9.94835C19.2717 11.925 19.8366 13.7658 20.7048 15.5124C21.4161 16.9347 22.2739 18.2525 23.4559 19.3507C24.7635 20.5534 24.7949 22.4255 23.5919 23.6178C22.3889 24.8206 20.5688 24.7369 19.3135 23.4714C16.8762 21.0241 13.9368 19.6122 10.4848 19.3298C8.56009 19.1729 7.39897 19.905 6.61443 21.6725C6.15417 22.7184 5.87173 23.8061 5.70436 24.9252C5.46377 26.5985 4.00975 27.6549 2.31514 27.3934C0.829746 27.1633 -0.205849 25.6573 0.0347441 24.0571C0.359021 21.9235 0.944812 19.8841 2.04317 18.012C3.7064 15.1777 6.24831 13.8181 9.47016 13.588C9.55384 13.5775 9.64799 13.588 9.73167 13.588Z"
        />
        <path
            d="M9.48351 5.25684C9.48351 7.59958 7.55877 9.52398 5.23652 9.51352C2.89336 9.50306 1 7.58912 1 5.24638C1 2.90364 2.92474 0.979252 5.24698 1.00017C7.60061 1.01063 9.48351 2.9141 9.48351 5.25684Z"
        />
        <path
            d="M56.494 52.2567C56.494 54.6099 54.6111 56.5134 52.2575 56.5134C49.9143 56.5134 48.0105 54.6099 48 52.2671C47.9896 49.9349 49.9143 48 52.247 48C54.5902 48.0105 56.4836 49.9035 56.494 52.2567Z"
        />
    </g>
</svg>