<svg width="13" height="13" viewBox="0 0 13 13" fill="none" xmlns="http://www.w3.org/2000/svg">
<path d="M6.3594 3.45194C4.72918 3.45194 3.41425 4.74633 3.41425 6.35107C3.41425 7.95581 4.72918 9.2502 6.3594 9.2502C7.98961 9.2502 9.30454 7.95581 9.30454 6.35107C9.30454 4.74633 7.98961 3.45194 6.3594 3.45194ZM6.3594 8.23588C5.30591 8.23588 4.44466 7.39062 4.44466 6.35107C4.44466 5.31152 5.30335 4.46626 6.3594 4.46626C7.41544 4.46626 8.27413 5.31152 8.27413 6.35107C8.27413 7.39062 7.41288 8.23588 6.3594 8.23588ZM10.112 3.33335C10.112 3.70931 9.80437 4.00956 9.42501 4.00956C9.04309 4.00956 8.73807 3.70678 8.73807 3.33335C8.73807 2.95992 9.04566 2.65714 9.42501 2.65714C9.80437 2.65714 10.112 2.95992 10.112 3.33335ZM12.0626 4.01966C12.019 3.11384 11.8088 2.31147 11.1347 1.6504C10.4631 0.989323 9.64802 0.782423 8.72782 0.737006C7.77942 0.684019 4.9368 0.684019 3.98841 0.737006C3.07078 0.7799 2.25567 0.9868 1.58154 1.64787C0.907412 2.30894 0.69979 3.11131 0.653652 4.01713C0.599824 4.95071 0.599824 7.74891 0.653652 8.68249C0.697227 9.58831 0.907412 10.3907 1.58154 11.0517C2.25567 11.7128 3.06821 11.9197 3.98841 11.9651C4.9368 12.0181 7.77942 12.0181 8.72782 11.9651C9.64802 11.9222 10.4631 11.7153 11.1347 11.0517C11.8063 10.3907 12.0164 9.58831 12.0626 8.68249C12.1164 7.74891 12.1164 4.95323 12.0626 4.01966ZM10.8374 9.68419C10.6374 10.1787 10.2504 10.5597 9.74542 10.7591C8.98927 11.0543 7.19501 10.9861 6.3594 10.9861C5.52378 10.9861 3.72696 11.0517 2.97337 10.7591C2.47098 10.5623 2.08393 10.1813 1.88144 9.68419C1.58154 8.93985 1.65075 7.17363 1.65075 6.35107C1.65075 5.52852 1.5841 3.75977 1.88144 3.01796C2.08137 2.52341 2.46842 2.14241 2.97337 1.94308C3.72952 1.64787 5.52378 1.716 6.3594 1.716C7.19501 1.716 8.99183 1.6504 9.74542 1.94308C10.2478 2.13989 10.6349 2.52089 10.8374 3.01796C11.1372 3.76229 11.068 5.52852 11.068 6.35107C11.068 7.17363 11.1372 8.94237 10.8374 9.68419Z" fill="black"/>
</svg>
