<svg width="14" height="13" viewBox="0 0 14 13" fill="none" xmlns="http://www.w3.org/2000/svg">
<path d="M3.71808 12.7373H1.10289V4.35191H3.71808V12.7373ZM2.40908 3.20807C1.57282 3.20807 0.894531 2.5184 0.894531 1.68575C0.894531 1.2858 1.0541 0.902231 1.33813 0.619423C1.62216 0.336614 2.00739 0.177734 2.40908 0.177734C2.81076 0.177734 3.19599 0.336614 3.48002 0.619423C3.76406 0.902231 3.92362 1.2858 3.92362 1.68575C3.92362 2.5184 3.24505 3.20807 2.40908 3.20807ZM13.5059 12.7373H10.8963V8.65532C10.8963 7.6825 10.8766 6.43493 9.53665 6.43493C8.17697 6.43493 7.96861 7.49186 7.96861 8.58524V12.7373H5.35623V4.35191H7.86443V5.49575H7.90103C8.25017 4.83692 9.10304 4.14164 10.3754 4.14164C13.0222 4.14164 13.5087 5.87703 13.5087 8.13107V12.7373H13.5059Z" fill="black"/>
</svg>
