<svg width="14" height="11" viewBox="0 0 14 11" fill="none" xmlns="http://www.w3.org/2000/svg">
<path d="M12.4853 2.85522C12.4935 2.96604 12.4935 3.07688 12.4935 3.1877C12.4935 6.56775 9.82944 10.4624 4.96032 10.4624C3.46023 10.4624 2.06673 10.0428 0.894531 9.31458C1.10766 9.33831 1.31257 9.34623 1.53391 9.34623C2.77166 9.34623 3.91108 8.94253 4.82096 8.25385C3.65697 8.23009 2.6815 7.49392 2.34541 6.48069C2.50937 6.50442 2.6733 6.52026 2.84546 6.52026C3.08317 6.52026 3.3209 6.48858 3.54221 6.4332C2.32904 6.1957 1.41913 5.16666 1.41913 3.92387V3.89222C1.77159 4.0822 2.18148 4.20093 2.6159 4.21675C1.90275 3.75762 1.43553 2.97396 1.43553 2.08738C1.43553 1.61244 1.56666 1.17706 1.79619 0.797101C3.09954 2.34861 5.05867 3.36182 7.25548 3.47266C7.21451 3.28268 7.18991 3.0848 7.18991 2.8869C7.18991 1.47786 8.3703 0.330078 9.83759 0.330078C10.5999 0.330078 11.2885 0.638795 11.7721 1.13749C12.3705 1.02668 12.9443 0.812939 13.4525 0.52006C13.2558 1.11376 12.8377 1.61246 12.2885 1.92907C12.8214 1.87369 13.3378 1.73117 13.8132 1.5333C13.4526 2.03989 13.0017 2.49107 12.4853 2.85522Z" fill="black"/>
</svg>
