<svg width="15" height="14" viewBox="0 0 15 14" fill="none" xmlns="http://www.w3.org/2000/svg">
<path d="M12.3914 2.03439C11.082 0.721916 9.33832 0 7.48513 0C3.66012 0 0.547599 3.11255 0.547599 6.93749C0.547599 8.15933 0.866375 9.35311 1.47264 10.4062L0.488281 14L4.16641 13.0344C5.17892 13.5875 6.3195 13.8781 7.48203 13.8781H7.48516C11.3071 13.8781 14.4883 10.7656 14.4883 6.94065C14.4883 5.0875 13.7008 3.3469 12.3914 2.03439ZM7.48513 12.7094C6.44763 12.7094 5.43199 12.4313 4.54761 11.9063L4.33825 11.7813L2.15697 12.3531L2.73825 10.225L2.60074 10.0062C2.02263 9.08747 1.71947 8.02812 1.71947 6.93749C1.71947 3.75935 4.30699 1.1719 7.48827 1.1719C9.02886 1.1719 10.4757 1.77189 11.5633 2.8625C12.6507 3.95313 13.3195 5.40004 13.3164 6.94065C13.3164 10.122 10.6632 12.7094 7.48513 12.7094ZM10.6476 8.3906C10.4758 8.30319 9.62267 7.88432 9.46328 7.82816C9.3039 7.76876 9.1883 7.74066 9.07268 7.91566C8.95706 8.09067 8.6258 8.4781 8.52263 8.59692C8.42265 8.71254 8.31951 8.72816 8.14764 8.64066C7.12889 8.13133 6.46017 7.73132 5.78829 6.57814C5.61015 6.27191 5.96646 6.29376 6.29765 5.63131C6.35395 5.51563 6.32583 5.41565 6.28201 5.32815C6.2383 5.24065 5.8914 4.38753 5.74766 4.04063C5.60705 3.70314 5.46331 3.75001 5.35703 3.74377C5.25705 3.7375 5.14136 3.7375 5.0258 3.7375C4.91015 3.7375 4.72267 3.78126 4.56328 3.95313C4.40392 4.12813 3.95702 4.54692 3.95702 5.40004C3.95702 6.25316 4.57886 7.07819 4.66326 7.19378C4.75073 7.30937 5.88516 9.05941 7.62574 9.81255C8.72578 10.2875 9.15705 10.3281 9.70707 10.2469C10.0414 10.1969 10.7321 9.82813 10.8758 9.42189C11.0195 9.01567 11.0195 8.66884 10.9758 8.59695C10.9352 8.51873 10.8195 8.47503 10.6476 8.3906Z" fill="black"/>
</svg>
