<svg width="17" height="12" viewBox="0 0 17 12" fill="none" xmlns="http://www.w3.org/2000/svg">
<path d="M16.1567 2.34709C15.9726 1.66424 15.4303 1.12645 14.7418 0.943941C13.4939 0.612305 8.48966 0.612305 8.48966 0.612305C8.48966 0.612305 3.48548 0.612305 2.23749 0.943941C1.54898 1.12648 1.00672 1.66424 0.822675 2.34709C0.488281 3.58479 0.488281 6.16715 0.488281 6.16715C0.488281 6.16715 0.488281 8.7495 0.822675 9.9872C1.00672 10.6701 1.54898 11.1854 2.23749 11.3679C3.48548 11.6996 8.48966 11.6996 8.48966 11.6996C8.48966 11.6996 13.4938 11.6996 14.7418 11.3679C15.4303 11.1854 15.9726 10.6701 16.1567 9.9872C16.491 8.7495 16.491 6.16715 16.491 6.16715C16.491 6.16715 16.491 3.58479 16.1567 2.34709ZM6.85301 8.51173V3.82256L11.0355 6.1672L6.85301 8.51173Z" fill="black"/>
</svg>
